<?xml version="1.0" encoding="utf-8"?>
<!-- Generator: Adobe Illustrator 23.0.3, SVG Export Plug-In . SVG Version: 6.00 Build 0)  -->
<svg version="1.1" id="Layer_1" xmlns="http://www.w3.org/2000/svg" xmlns:xlink="http://www.w3.org/1999/xlink" x="0px" y="0px"
	 viewBox="0 0 639.7 152.8" style="enable-background:new 0 0 639.7 152.8;" xml:space="preserve">
<style type="text/css">
	.st0{fill:#3C8BD6;}
	.st1{fill:#6EB016;}
</style>
<g>
	<g>
		<g>
			<circle class="st0" cx="113.2" cy="19" r="13.2"/>
			<path class="st0" d="M124.5,87.8c0,1.5,0,3.8,0,5.6v50.7H102V135c-1.2,1-2.5,1.9-3.7,2.7c-3.2,2.2-6.7,4-10.2,5.5
				c-7.4,3.1-15.3,4.7-23.4,4.7c-8.1,0-16-1.6-23.4-4.7c-3.6-1.5-7-3.4-10.2-5.5c-3.2-2.1-6.2-4.6-8.9-7.3c-2.7-2.7-5.2-5.7-7.3-8.9
				c-2.2-3.2-4-6.7-5.6-10.2C6,103.8,4.4,95.9,4.4,87.8c0-8.1,1.6-16,4.7-23.4c1.5-3.6,3.4-7,5.6-10.2c2.2-3.2,4.6-6.2,7.3-8.9
				c2.7-2.7,5.7-5.2,8.9-7.3c3.2-2.2,6.7-4,10.2-5.5c7.4-3.1,15.3-4.7,23.4-4.7c5.1,0,10,0.6,14.9,1.9v23.9c-4.6-2-9.6-3.1-14.9-3.1
				c-20.7,0-37.5,16.8-37.5,37.5s16.8,37.5,37.5,37.5c19.8,0,36-15.3,37.4-34.7V40.7c1.8,1.4,3.5,3,5.2,4.6c2.7,2.7,5.2,5.7,7.4,8.9
				c2.2,3.2,4,6.7,5.6,10.2C123.2,71.8,124.5,79.7,124.5,87.8z"/>
		</g>
		<path class="st1" d="M92.2,79.3c-0.3-0.9-0.6-1.9-1-2.8c-0.7-1.7-1.6-3.4-2.7-4.9c-1-1.5-2.2-3-3.5-4.3s-2.8-2.5-4.3-3.5
			c-0.4-0.3-0.9-0.6-1.4-0.9c-1.1-0.7-2.3-1.3-3.6-1.8c-3.6-1.5-7.4-2.3-11.3-2.3s-7.7,0.8-11.3,2.3c-1.7,0.7-3.4,1.6-4.9,2.7
			c-1.5,1-3,2.2-4.3,3.5s-2.5,2.8-3.5,4.3c-1.1,1.5-1.9,3.2-2.7,4.9c-1.5,3.6-2.3,7.4-2.3,11.3c0,3.9,0.8,7.7,2.3,11.3
			c0.7,1.7,1.6,3.4,2.7,4.9c1,1.5,2.2,3,3.5,4.3s2.8,2.5,4.3,3.5c1.6,1,3.2,2,4.9,2.7c3.6,1.5,7.4,2.3,11.3,2.3s7.7-0.8,11.3-2.3
			c1.7-0.7,3.4-1.6,4.9-2.7c1.5-1,3-2.2,4.3-3.5s2.5-2.8,3.5-4.3c1.1-1.5,1.9-3.2,2.7-4.9c1.5-3.6,2.3-7.4,2.3-11.3
			C93.5,84.9,93,82,92.2,79.3z M64.5,105.1c-9.6,0-17.3-7.8-17.3-17.3c0-9.6,7.8-17.3,17.3-17.3c6.3,0,11.8,3.4,14.9,8.4
			c0.1,0.1,0.1,0.3,0.2,0.4c1.4,2.5,2.2,5.4,2.2,8.5C81.8,97.4,74,105.1,64.5,105.1z"/>
	</g>
	<g>
		<g>
			<path class="st0" d="M337.4,138V73.9c0-4.5,3.7-8.2,8.2-8.2l0,0c4.5,0,8.2,3.7,8.2,8.2V138c0,4.5-3.7,8.2-8.2,8.2l0,0
				C341.1,146.2,337.4,142.5,337.4,138z"/>
			<path class="st1" d="M337.4,50.5v-5.6c0-4.5,3.7-8.2,8.2-8.2l0,0c4.5,0,8.2,3.7,8.2,8.2v5.6c0,4.5-3.7,8.2-8.2,8.2l0,0
				C341.1,58.7,337.4,55,337.4,50.5z"/>
		</g>
		<path class="st0" d="M324.6,146.5c-1.4,0.9-3,1.4-4.5,1.4c-2.7,0-5.3-1.3-6.9-3.7l-19-28.8h-76.5l-18.3,28.7
			c-1.6,2.5-4.2,3.8-6.9,3.8c-1.5,0-3-0.4-4.4-1.3c-3.8-2.4-5-7.5-2.5-11.3l20.4-31.9l0.8-1.2c0.2-0.3,0.5-0.5,0.7-0.8
			c1.5-1.5,3.5-2.4,5.8-2.4h70.2l-34-51.4c-2.5-3.8-1.5-8.9,2.3-11.4c1.4-0.9,3-1.4,4.5-1.4c2.7,0,5.3,1.3,6.9,3.7L303,99l10.5,15.9
			l13.4,20.3C329.4,138.9,328.4,144,324.6,146.5z"/>
		<path class="st0" d="M631.8,146.5c-1.4,0.9-3,1.4-4.5,1.4c-2.7,0-5.3-1.3-6.9-3.7l-19-28.8h-76.5l-18.3,28.7
			c-1.6,2.5-4.2,3.8-6.9,3.8c-1.5,0-3-0.4-4.4-1.3c-3.8-2.4-5-7.5-2.5-11.3l20.3-31.9l0.8-1.2c0.2-0.3,0.5-0.5,0.7-0.8
			c1.5-1.5,3.5-2.4,5.8-2.4h70.2l-34-51.4c-2.5-3.8-1.5-8.9,2.3-11.4c1.4-0.9,3-1.4,4.5-1.4c2.7,0,5.3,1.3,6.9,3.7l40,60.5
			l10.5,15.9l13.4,20.3C636.6,138.9,635.5,144,631.8,146.5z"/>
		<path class="st0" d="M516.5,36.7L516.5,36.7c-3.8-2.5-8.9-1.5-11.4,2.3l-56.8,85.4L391.4,39c-2.5-3.8-7.6-4.8-11.4-2.3l0,0
			c-3.8,2.5-4.8,7.6-2.3,11.4l58.6,88c1.7,2.5,3.3,5.1,4.9,7.6c0.6,0.9,1.4,1.8,2.4,2.4l0,0c1.4,1,3,1.4,4.6,1.4
			c1.6,0,3.2-0.4,4.6-1.4l0,0c1-0.6,1.8-1.5,2.4-2.4c1.6-2.6,3.3-5.1,4.9-7.6l58.6-88C521.3,44.3,520.2,39.2,516.5,36.7z"/>
	</g>
</g>
</svg>
